# xmcd
#
# Track frame offsets: 
#        150
#        6914
#        20873
#        36729
#        54523
#        69939
#        87692
#        110631
#        126678
#        150346
#        170796
#        186342
#        209840
#        223803
#
# Disc length: 3313 seconds
#
# Revision: 0
# Processed by: cddbd v1.5.2PL0 Copyright (c) Steve Scherf et al.
# Submitted via: ExactAudioCopy v0.99pb3
#
DISCID=e40cef0e
DTITLE=Live Manikins - Still Life
DYEAR=2007
DGENRE=Hip-Hop
TTITLE0=Intro
TTITLE1=Out of this World
TTITLE2=Don't Tell Me
TTITLE3=Conscious 8
TTITLE4=L'Hungre
TTITLE5=Malfunktion
TTITLE6=Rock the Mic
TTITLE7=Anywhere
TTITLE8=Lounge Act
TTITLE9=Just Listen
TTITLE10=Cruisin'
TTITLE11=Wake Up
TTITLE12=Got the Style
TTITLE13=Natural Disasters
EXTD=
EXTT0=
EXTT1=
EXTT2=
EXTT3=
EXTT4=
EXTT5=
EXTT6=
EXTT7=
EXTT8=
EXTT9=
EXTT10=
EXTT11=
EXTT12=
EXTT13=
PLAYORDER=
